<?xml version="1.0" encoding="UTF-8" standalone="no"?>
<!DOCTYPE svg PUBLIC "-//W3C//DTD SVG 1.1//EN" "http://www.w3.org/Graphics/SVG/1.1/DTD/svg11.dtd">
<svg version="1.1" xmlns="http://www.w3.org/2000/svg" xmlns:xlink="http://www.w3.org/1999/xlink" preserveAspectRatio="xMidYMid meet" viewBox="0 0 640 640" width="640" height="640"><defs><path d="M312.05 433.72C349.75 433.24 338.62 402.85 387.54 402.26C430.56 403.96 453.95 382.61 457.68 338.2C459.2 320.18 457.21 302.04 451.83 284.78C422.49 190.73 374.81 143.01 308.8 141.63C237.17 140.37 180.19 214.72 166.06 310.92C151.14 399.24 222.84 408.39 250.53 406.98C278.21 405.58 274.36 434.2 312.05 433.72Z" id="e1r74KeVS"></path><path d="M312.05 433.72C349.75 433.24 338.62 402.85 387.54 402.26C430.56 403.96 453.95 382.61 457.68 338.2C459.2 320.18 457.21 302.04 451.83 284.78C422.49 190.73 374.81 143.01 308.8 141.63C237.17 140.37 180.19 214.72 166.06 310.92C151.14 399.24 222.84 408.39 250.53 406.98C278.21 405.58 274.36 434.2 312.05 433.72Z" id="dBf8UwIuP"></path><path d="M246.2 257.37C264.23 257.37 278.88 272.55 278.88 291.23C222.18 269.76 213.52 309.92 213.52 291.23C213.52 272.55 228.16 257.37 246.2 257.37Z" id="ajX2XFVnm"></path><path d="M376.67 257.37C358.64 257.37 343.99 272.55 343.99 291.23C401.48 268.18 409.35 309.92 409.35 291.23C409.35 272.55 394.71 257.37 376.67 257.37Z" id="b2lcaSM4Iy"></path><path d="M275.88 389.59C275.88 376.99 291.58 366.76 310.92 366.76C330.25 366.76 345.95 376.99 345.95 389.59C345.95 402.2 330.25 412.43 310.92 412.43C291.58 412.43 275.88 402.2 275.88 389.59Z" id="b5N2M7Hqoz"></path><path d="M275.88 389.59C275.88 376.99 291.58 366.76 310.92 366.76C330.25 366.76 345.95 376.99 345.95 389.59C345.95 402.2 330.25 412.43 310.92 412.43C291.58 412.43 275.88 402.2 275.88 389.59Z" id="a48ZzHv4FZ"></path><path d="M67.85 387.3C111.95 343.73 159.72 326.4 211.16 335.33" id="iP28ED2Kh"></path><path d="M67.85 387.3C111.95 343.73 159.72 326.4 211.16 335.33" id="b1P1yJRwzs"></path><path d="M98.56 440.05C114.83 388.61 152.37 353.7 211.16 335.33" id="a5cS6RIbAB"></path><path d="M98.56 440.05C114.83 388.61 152.37 353.7 211.16 335.33" id="eYudBFA8O"></path><path d="M548.72 377.61C504.62 334.04 456.86 316.72 405.41 325.64" id="b1Xt2GxlPg"></path><path d="M548.72 377.61C504.62 334.04 456.86 316.72 405.41 325.64" id="bwez5c0Tn"></path><path d="M518.01 430.37C501.74 378.92 464.2 344.01 405.41 325.64" id="a9ZfBwnOP"></path><path d="M518.01 430.37C501.74 378.92 464.2 344.01 405.41 325.64" id="ayHc2mT2v"></path><path d="M270.03 148.83C228.01 162.29 201.87 208.09 192.85 225.44C186.28 229.64 179.53 232.18 169.82 232.18C113.54 232.18 67.85 186.31 67.85 129.82C67.85 73.32 113.54 27.45 169.82 27.45C208.93 27.45 242.93 49.61 260.03 82.09C267.54 96.34 271.79 112.58 271.79 129.82C271.79 136.31 271.19 142.67 270.03 148.83Z" id="b2nJMotLd9"></path><path d="M270.03 147.83C238.71 160.11 211.88 187.36 189.54 229.57C182.87 231.31 176.29 232.18 169.82 232.18C113.54 232.18 67.85 186.31 67.85 129.82C67.85 73.32 113.54 27.45 169.82 27.45C208.93 27.45 242.93 49.61 260.03 82.09C267.54 96.34 271.79 112.58 271.79 129.82C271.79 136.31 271.19 141.67 270.03 147.83Z" id="b2eKIXInvN"></path><path d="M347.71 148.83C389.73 162.29 419.6 208.09 428.61 225.44C435.19 229.64 438.21 232.18 447.92 232.18C504.2 232.18 549.89 186.31 549.89 129.82C549.89 73.32 504.2 27.45 447.92 27.45C408.81 27.45 374.81 49.61 357.71 82.09C350.21 96.34 345.95 112.58 345.95 129.82C345.95 136.31 346.56 142.67 347.71 148.83Z" id="a19NAvKCgG"></path><path d="M150.38 473.18C131.52 478.1 117.97 484.61 106.21 494.41C96.25 502.72 91.33 510.79 90.35 520.4C89.38 530.33 93.32 537.14 101.49 539.62C102.99 540.07 104.46 540.2 104.46 539.91C104.46 539.84 103.32 538.64 101.91 537.24C98.3 533.66 96.93 530.37 96.93 525.32C96.93 518.87 101.17 511.77 110.51 502.55C119.57 493.7 127.61 488.26 138.49 483.63C156.43 476.01 175.16 472.62 196.52 473.08C211.73 473.41 220.85 475.43 229.32 480.41C235.51 484.02 239.51 489.43 240.72 495.78C242.12 503.11 240.16 512.75 235.96 519.39C233.72 522.94 228.99 526.78 223.82 529.29C215.15 533.49 205.38 535.38 193.89 535.09C193.45 535.08 191.27 535.04 187.34 534.96C184.7 534.02 183.24 533.5 182.94 533.4C177.76 531.54 175.26 531.34 172.78 532.52C171.19 533.3 169.46 534.99 169.13 536.03C168.81 537.08 170.01 538.31 172.03 539.06C173.69 539.68 179.85 540.69 188.32 541.73C195.81 542.64 204.08 548.08 208.93 555.28C211.44 558.96 212.58 562.8 212.58 567.43C212.58 575.21 207.92 584.43 199.62 593.16C194.44 598.63 189.55 602.41 182.81 606.12C173.6 611.26 164.87 613.67 155.68 613.67C148.68 613.67 142.95 612.44 137.48 609.73C130.02 606.09 124 600.09 118.85 591.17C118.75 590.99 118.24 590.09 117.32 588.47C119.39 586.57 120.54 585.52 120.77 585.31C130.8 576.09 142.85 562.15 156.43 543.98C161.64 537.04 163.73 534.57 169.13 528.97C180.31 517.4 193.66 504.7 200.04 499.59C203.85 496.53 205.22 495.68 207.04 495.29C208.67 494.93 210.5 493.96 211.08 493.11C211.37 492.72 211.6 491.74 211.6 490.93C211.6 489.01 210.53 487.64 208.12 486.47C204.47 484.67 198.02 485.13 193.5 487.48C190.37 489.1 187.96 491.16 181.64 497.6C170.5 508.97 158.45 523.76 139.3 549.65C122.99 571.73 115.04 581.66 114.55 580.75C114.42 580.49 112.89 575.73 111.16 570.2C107.03 557.01 105.82 554.4 102.96 552.48C99.54 550.23 94.95 551.11 90.16 555.02C86.41 558.08 79.9 567.62 75.6 576.38C71.11 585.6 69.41 591.11 69.05 597.72C68.66 605.37 71.66 611.82 76.22 613.19C81.46 614.75 90.78 610.06 105.24 598.6C107.19 597.03 108.88 595.86 109.01 595.93C109.18 596.02 109.67 596.77 110.15 597.65C114.71 605.57 122.82 611.85 132.69 615.07C139.3 617.26 144.87 618.04 153.8 618.04C165.36 618.04 175.29 616.31 185.55 612.53C198.15 607.91 207.99 601.85 214.99 594.39C220.01 589.09 223.59 583.06 225.35 577.04C226 574.76 226.1 573.71 226.1 568.73C226.1 562.45 225.8 560.85 223.95 556.58C222.48 553.26 220.2 550.04 217.43 547.37C212.32 542.48 207.04 539.97 199.88 539C199.67 538.97 198.64 538.83 196.78 538.57C199.56 538.44 201.1 538.36 201.41 538.35C214.21 537.66 224.86 535.09 234.24 530.4C244.69 525.16 249.8 518.15 251.82 506.4C253.35 497.44 251.2 489.49 245.67 483.5C242.64 480.28 239.42 478.03 234.3 475.59C226.97 472.1 219.65 470.15 209.16 468.91C205.12 468.42 189.72 468.03 184.9 468.29C171.28 469.04 160.28 470.61 150.38 473.18ZM103.71 581.76C105.04 585.8 106.28 589.25 106.44 589.44C107.03 590.13 93.68 602.15 88.69 605.43C84.65 608.11 81.2 609.28 79.7 608.46C78.76 607.94 77.2 604.59 76.58 601.59C75.63 597.13 76.74 589.44 79.25 583.39C81.43 578.05 85.47 570.65 89.51 564.6C92.21 560.59 92.34 560.49 94.07 561.66C96.7 563.39 99.67 569.58 103.71 581.76Z" id="a2Mnq1BHOR"></path><path d="M517.41 550.82C515.13 554.5 509.73 564.24 506.96 569.55C506.76 569.94 505.75 571.89 503.93 575.41C500.2 579.14 498.12 581.21 497.71 581.63C492.43 586.9 486.02 592.6 480.77 596.61C475.04 601.01 468.85 604.43 464.39 605.73C461.75 606.48 460.91 606.57 458.04 606.44C454.33 606.28 452.9 605.76 451.1 603.84C449.7 602.37 449.15 601.17 448.69 598.69C448.01 595.01 448.76 589.9 450.55 585.93C450.61 585.8 450.88 585.18 451.37 584.07C452.87 584.19 453.71 584.25 453.87 584.27C460.84 584.79 474 579.71 485.5 572.09C490.87 568.5 496.24 563.42 498.2 560.13C500.9 555.51 501.55 550.75 499.92 547.53C496.73 541.31 487.39 540.63 476.87 545.87C464.88 551.83 449.12 567.88 442.54 580.75C441.69 582.47 440.78 584.4 440.59 585.02C439.77 587.56 426.87 597.75 417.59 603.19C413.03 605.86 408.08 607.06 405.93 606.02C404.08 605.14 403.1 602.86 403.1 599.44C403.1 597.91 403.33 596.09 403.62 595.21C404.6 592.18 407.72 586.29 410.82 581.69C414.24 576.58 424.82 562.54 430.65 555.31C433.03 552.41 434.37 550.49 434.37 550C434.37 549.03 432.77 547.43 430.65 546.36C427.1 544.5 423.91 545.45 419.42 549.68C414.21 554.6 408.28 563.19 402.22 574.5C400.62 577.49 400.04 578.21 396.46 581.66C391.67 586.25 387.6 589.25 382.75 591.69C379 593.58 374.41 594.95 371.18 595.14C369.46 595.27 369.39 595.24 369.43 594.46C369.46 594 370.01 591.24 370.66 588.27C371.35 585.31 372.68 578.79 373.66 573.78C376.56 558.93 377.96 552.9 379.85 547.07C381.41 542.35 382.13 540.98 385.22 536.91C388.57 532.55 389.42 530.95 389.42 529.03C389.42 526.1 387.17 524.15 383.79 524.11C380.82 524.11 379.91 524.9 356.37 546.88C349.56 553.23 342.23 560.13 340.08 562.25C337.93 564.33 335.85 566.16 335.49 566.26C335.1 566.39 334.12 567.33 333.28 568.37C332.46 569.42 330.15 572.09 328.16 574.3C326.18 576.51 322.4 580.81 319.79 583.84C312.63 592.15 304.68 599.05 299.37 601.59C296.9 602.76 293.84 603.09 292.44 602.31C291.2 601.62 290.09 598.89 290.09 596.38C290.09 593.84 290.84 591.3 292.99 586.81C295.2 582.12 297.97 577.59 305.95 565.54C315.07 551.76 315.82 550.53 315.82 549.78C315.82 549.16 314.32 547.4 312.95 546.46C311.26 545.28 309.66 544.92 308 545.35C306.44 545.74 306.05 545.51 305.43 543.75C304.26 540.33 302.95 538.9 299.86 537.63C296.83 536.39 289.24 537.08 284.07 539C274.78 542.48 266.45 548.31 256.35 558.44C244.56 570.26 238.11 579.77 235.83 588.76C235.05 591.85 235.05 597 235.8 599.18C237.56 604.13 242.05 607.71 248.14 608.98C252.02 609.8 254.85 609.02 259.74 605.73C264.66 602.47 267.91 599.7 274.88 592.9C278.43 589.48 281.49 586.64 281.69 586.64C281.88 586.64 281.95 587 281.82 587.52C281.33 589.54 281.2 594.88 281.62 596.67C282.53 600.91 285.21 604.36 289.02 606.25C294.16 608.79 299.8 607.39 307.42 601.72C310.64 599.34 318.42 591.85 322.56 587.16C322.71 586.99 323.47 586.14 324.84 584.59C325.76 587.41 326.27 588.97 326.37 589.28C329.37 598.53 332.49 603.58 336.86 606.28C340.05 608.27 346.86 609.28 351.64 608.46C356.85 607.58 359.75 606.41 364.64 603.16C367.54 601.23 368.45 600.78 370.66 600.29C377.01 598.86 382.84 596.67 386.65 594.3C388.71 593.03 392.42 590.26 395.94 587.36C396 587.31 396.3 587.06 396.85 586.61C396.48 588.04 396.27 588.83 396.23 588.99C393.49 599.34 395.67 607.94 401.6 610.03C403.39 610.65 408.77 610.61 412.02 609.93C414.95 609.31 420 607.26 422.64 605.6C425.9 603.51 431.66 599.05 435.08 595.93C435.31 595.72 436.42 594.7 438.44 592.86C438.55 594.66 438.62 595.66 438.63 595.86C439.02 601.66 441.04 605.01 445.89 607.94C448.08 609.25 452.51 610.71 455.11 610.97C458.99 611.39 465.76 609.57 471.82 606.48C479.7 602.47 489.63 595.05 498.1 586.84C498.26 586.69 499.05 585.93 500.48 584.56C500.11 585.91 499.9 586.66 499.86 586.81C498.33 592.34 498.33 598.01 499.86 601.2C502.2 606.09 508.49 609.08 515.46 608.66C524.51 608.11 533.27 602.8 545.58 590.39C550.99 584.95 556.72 578.44 557.99 576.29C558.68 575.15 558.71 574.95 558.25 574.33C557.18 572.8 556.3 573.42 551.05 579.48C542.03 589.9 532.98 597.26 524.12 601.43C519.95 603.38 517.9 603.94 514.81 603.94C511.35 603.97 509.37 603.16 508.33 601.3C507.32 599.48 507.35 594.85 508.46 591.01C509.56 587.1 514.12 578.05 517.67 572.64C519.27 570.23 522.72 565.02 525.29 561.08C527.9 557.14 532.43 550.62 535.36 546.59C540.27 539.81 543.53 535.45 557.89 516.2C560.69 512.42 563.01 509.07 563.01 508.74C563.01 507.86 560.76 505.52 559.26 504.87C557.11 503.89 555.06 504.08 552.39 505.48C544.74 509.56 534.93 522.26 517.41 550.82ZM370.5 548.7C369.52 558.21 368.64 563.55 366.49 573.29C364.18 583.78 361.28 591.92 359 594.43C357.28 596.35 354.18 597.59 350.37 597.91C345.49 598.3 341.32 596.8 337.9 593.38C334.77 590.23 333.37 586.81 333.34 582.12C333.31 579.61 333.41 579.12 334.32 577.33C337.77 570.52 353.27 554.34 367.57 542.61C369.46 541.08 371.15 539.78 371.31 539.78C371.48 539.75 371.48 540.36 371.38 541.11C371.25 541.9 370.86 545.28 370.5 548.7ZM304.09 547.59C304.09 547.82 298.85 555.22 293.25 562.87C291.85 564.76 289.02 568.67 286.93 571.6C280.26 580.88 275.34 586.71 268.69 593.16C260.55 601.1 254.79 604.56 249.67 604.56C246.87 604.56 245.86 604.07 244.82 602.21C244.11 600.97 244.01 600.45 244.01 597.39C244.04 594.72 244.2 593.48 244.79 591.69C247.2 584.36 252.18 577.33 261.76 567.75C267.42 562.09 273.32 557.04 279.02 552.97C282.99 550.14 289.9 546.55 293.18 545.64C295.76 544.92 300.48 544.76 301.59 545.32C302.43 545.77 304.09 547.27 304.09 547.59ZM495.49 551.37C495.04 555.41 490.32 562.19 484.71 566.78C479.6 570.91 469.96 576.45 464.88 578.14C460.65 579.58 455.6 580.06 455.05 579.12C454.78 578.73 458.11 574.01 461.43 570C466.18 564.27 475.01 556.13 480.35 552.51C485.82 548.83 489.7 547.63 493.15 548.57C495.17 549.13 495.69 549.74 495.49 551.37Z" id="a2CEOm88gp"></path><path d="M440.85 535.61C442.77 536.46 446.32 536.26 448.14 535.22C450.42 533.92 450.84 533.56 451.59 532.22C453.58 528.74 450.94 524.63 445.89 523.3C443.81 522.75 443.48 522.75 440.88 523.17C433.94 524.34 433.91 532.55 440.85 535.61Z" id="a7j3Pfaom"></path><path d="M336.52 276.86C336.52 269.64 340.75 263.78 345.95 263.78C351.15 263.78 355.38 269.64 355.38 276.86C355.38 284.08 351.15 289.94 345.95 289.94C340.75 289.94 336.52 284.08 336.52 276.86Z" id="aaJ4ag7DZ"></path><path d="M262.36 276.86C262.36 269.64 266.59 263.78 271.79 263.78C276.99 263.78 281.22 269.64 281.22 276.86C281.22 284.08 276.99 289.94 271.79 289.94C266.59 289.94 262.36 284.08 262.36 276.86Z" id="b1W7LYX7OG"></path><path d="M349.71 147.83C381.03 160.11 407.86 187.36 430.2 229.57C436.87 231.31 443.45 232.18 449.92 232.18C506.2 232.18 551.89 186.31 551.89 129.82C551.89 73.32 506.2 27.45 449.92 27.45C410.81 27.45 376.81 49.61 359.71 82.09C352.2 96.34 347.95 112.58 347.95 129.82C347.95 136.31 348.55 141.67 349.71 147.83Z" id="b3ZhsZmqmY"></path></defs><g><g><g><use xlink:href="#e1r74KeVS" opacity="1" fill="#000000" fill-opacity="0"></use><g><use xlink:href="#e1r74KeVS" opacity="1" fill-opacity="0" stroke="#000000" stroke-width="1" stroke-opacity="0"></use></g></g><g><use xlink:href="#dBf8UwIuP" opacity="1" fill="#000000" fill-opacity="0"></use><g><use xlink:href="#dBf8UwIuP" opacity="1" fill-opacity="0" stroke="#000000" stroke-width="8" stroke-opacity="1"></use></g></g><g><use xlink:href="#ajX2XFVnm" opacity="1" fill="#000000" fill-opacity="0"></use><g><use xlink:href="#ajX2XFVnm" opacity="1" fill-opacity="0" stroke="#000000" stroke-width="1" stroke-opacity="0"></use></g></g><g><use xlink:href="#b2lcaSM4Iy" opacity="1" fill="#000000" fill-opacity="0"></use><g><use xlink:href="#b2lcaSM4Iy" opacity="1" fill-opacity="0" stroke="#000000" stroke-width="1" stroke-opacity="0"></use></g></g><g><use xlink:href="#b5N2M7Hqoz" opacity="1" fill="#000000" fill-opacity="1"></use><g><use xlink:href="#b5N2M7Hqoz" opacity="1" fill-opacity="0" stroke="#000000" stroke-width="1" stroke-opacity="0"></use></g></g><g><use xlink:href="#a48ZzHv4FZ" opacity="1" fill="#000000" fill-opacity="0"></use><g><use xlink:href="#a48ZzHv4FZ" opacity="1" fill-opacity="0" stroke="#000000" stroke-width="1" stroke-opacity="0"></use></g></g><g><use xlink:href="#iP28ED2Kh" opacity="1" fill="#000000" fill-opacity="0"></use><g><use xlink:href="#iP28ED2Kh" opacity="1" fill-opacity="0" stroke="#000000" stroke-width="1" stroke-opacity="0"></use></g></g><g><use xlink:href="#b1P1yJRwzs" opacity="1" fill="#000000" fill-opacity="0"></use><g><use xlink:href="#b1P1yJRwzs" opacity="1" fill-opacity="0" stroke="#000000" stroke-width="6" stroke-opacity="1"></use></g></g><g><use xlink:href="#a5cS6RIbAB" opacity="1" fill="#000000" fill-opacity="0"></use><g><use xlink:href="#a5cS6RIbAB" opacity="1" fill-opacity="0" stroke="#000000" stroke-width="1" stroke-opacity="0"></use></g></g><g><use xlink:href="#eYudBFA8O" opacity="1" fill="#000000" fill-opacity="0"></use><g><use xlink:href="#eYudBFA8O" opacity="1" fill-opacity="0" stroke="#000000" stroke-width="6" stroke-opacity="1"></use></g></g><g><use xlink:href="#b1Xt2GxlPg" opacity="1" fill="#000000" fill-opacity="0"></use><g><use xlink:href="#b1Xt2GxlPg" opacity="1" fill-opacity="0" stroke="#000000" stroke-width="1" stroke-opacity="0"></use></g></g><g><use xlink:href="#bwez5c0Tn" opacity="1" fill="#000000" fill-opacity="0"></use><g><use xlink:href="#bwez5c0Tn" opacity="1" fill-opacity="0" stroke="#000000" stroke-width="6" stroke-opacity="1"></use></g></g><g><use xlink:href="#a9ZfBwnOP" opacity="1" fill="#000000" fill-opacity="0"></use><g><use xlink:href="#a9ZfBwnOP" opacity="1" fill-opacity="0" stroke="#000000" stroke-width="1" stroke-opacity="0"></use></g></g><g><use xlink:href="#ayHc2mT2v" opacity="1" fill="#000000" fill-opacity="0"></use><g><use xlink:href="#ayHc2mT2v" opacity="1" fill-opacity="0" stroke="#000000" stroke-width="6" stroke-opacity="1"></use></g></g><g><use xlink:href="#b2nJMotLd9" opacity="1" fill="#000000" fill-opacity="0"></use><g><use xlink:href="#b2nJMotLd9" opacity="1" fill-opacity="0" stroke="#000000" stroke-width="1" stroke-opacity="0"></use></g></g><g><use xlink:href="#b2eKIXInvN" opacity="1" fill="#000000" fill-opacity="0"></use><g><use xlink:href="#b2eKIXInvN" opacity="1" fill-opacity="0" stroke="#000000" stroke-width="8" stroke-opacity="1"></use></g></g><g><use xlink:href="#a19NAvKCgG" opacity="1" fill="#000000" fill-opacity="0"></use><g><use xlink:href="#a19NAvKCgG" opacity="1" fill-opacity="0" stroke="#000000" stroke-width="1" stroke-opacity="0"></use></g></g><g><use xlink:href="#a2Mnq1BHOR" opacity="1" fill="#000000" fill-opacity="1"></use><g><use xlink:href="#a2Mnq1BHOR" opacity="1" fill-opacity="0" stroke="#000000" stroke-width="1" stroke-opacity="0"></use></g></g><g><use xlink:href="#a2CEOm88gp" opacity="1" fill="#000000" fill-opacity="1"></use><g><use xlink:href="#a2CEOm88gp" opacity="1" fill-opacity="0" stroke="#000000" stroke-width="1" stroke-opacity="0"></use></g></g><g><use xlink:href="#a7j3Pfaom" opacity="1" fill="#000000" fill-opacity="1"></use><g><use xlink:href="#a7j3Pfaom" opacity="1" fill-opacity="0" stroke="#000000" stroke-width="1" stroke-opacity="0"></use></g></g><g><use xlink:href="#aaJ4ag7DZ" opacity="1" fill="#000000" fill-opacity="1"></use><g><use xlink:href="#aaJ4ag7DZ" opacity="1" fill-opacity="0" stroke="#000000" stroke-width="1" stroke-opacity="0"></use></g></g><g><use xlink:href="#b1W7LYX7OG" opacity="1" fill="#000000" fill-opacity="1"></use><g><use xlink:href="#b1W7LYX7OG" opacity="1" fill-opacity="0" stroke="#000000" stroke-width="1" stroke-opacity="0"></use></g></g><g><use xlink:href="#b3ZhsZmqmY" opacity="1" fill="#000000" fill-opacity="0"></use><g><use xlink:href="#b3ZhsZmqmY" opacity="1" fill-opacity="0" stroke="#000000" stroke-width="8" stroke-opacity="1"></use></g></g></g></g></svg>